<svg width="221" height="194" viewBox="0 0 221 194" fill="none" xmlns="http://www.w3.org/2000/svg">
<path d="M0.00118175 147.966C-0.054272 137.905 2.33816 129.754 6.79823 122.206C14.0389 109.957 21.4539 97.8103 28.6391 85.529C39.7615 66.5164 53.3002 49.1847 66.1655 31.3851C69.2471 27.1196 72.3367 22.8619 75.3946 18.5805C93.0526 -6.18028 128.147 -6.18821 145.908 18.525C155.66 32.0907 165.507 45.593 175.378 59.0795C187.007 74.9682 196.49 92.1969 206.59 109.037C209.173 113.35 211.843 117.616 214.37 121.961C230.562 149.782 215.724 185.127 184.749 192.453C173.825 195.038 163.4 193.262 153.45 188.315C146.597 184.905 139.784 181.425 132.948 177.992C118.237 170.602 103.533 170.626 88.8302 178.023C81.6529 181.639 74.4994 185.318 67.2904 188.87C33.0754 205.71 -0.228555 178.229 0.00118175 147.966ZM162.663 85.7352C162.861 69.1408 146.027 58.358 131.086 65.5333C127.537 67.2379 124.059 69.0932 120.518 70.8375C113.761 74.1754 106.972 74.1754 100.206 70.8533C97.0136 69.2835 93.9241 67.4916 90.6681 66.0962C88.141 65.01 85.4634 63.9397 82.7699 63.6146C73.8498 62.5442 66.8309 66.1438 62.0302 73.5808C56.9918 81.3824 57.2374 89.4457 61.7767 97.5091C71.3544 114.524 82.3421 130.595 94.0429 146.198C102.519 157.504 118.514 157.417 126.982 146.087C138.667 130.468 149.655 114.397 159.249 97.3981C161.3 93.7589 162.655 89.9611 162.655 85.7431L162.663 85.7352Z" fill="#1A1A32"/>
</svg>
