<svg width="524" height="80" viewBox="0 0 524 80" fill="none" xmlns="http://www.w3.org/2000/svg">
<path d="M0.000459866 59.4958C-0.0211194 55.6061 0.909873 52.4551 2.64547 49.5371C5.46311 44.8014 8.34857 40.1056 11.1446 35.3577C15.4728 28.0075 20.7413 21.307 25.7477 14.4258C26.9468 12.7767 28.1491 11.1307 29.3391 9.47555C36.2105 -0.0969262 49.8671 -0.0999914 56.7787 9.45409C60.5736 14.6986 64.4054 19.9185 68.2466 25.1324C72.772 31.2749 76.4621 37.9355 80.3926 44.4459C81.3976 46.1133 82.4365 47.7624 83.4199 49.4421C89.721 60.1977 83.947 73.8622 71.8935 76.6944C67.6423 77.6936 63.5854 77.007 59.7135 75.0944C57.0469 73.7763 54.3957 72.4307 51.7353 71.1035C46.0106 68.2468 40.289 68.256 34.5674 71.1158C31.7744 72.5135 28.9907 73.9357 26.1854 75.3089C12.871 81.8193 -0.0889401 71.1955 0.000459866 59.4958ZM63.2987 35.4374C63.3758 29.022 56.8249 24.8534 51.0109 27.6274C49.6298 28.2864 48.2764 29.0036 46.8985 29.678C44.2689 30.9684 41.6269 30.9684 38.9943 29.6841C37.7519 29.0772 36.5496 28.3845 35.2826 27.845C34.2992 27.4251 33.2573 27.0113 32.2091 26.8856C28.7379 26.4718 26.0066 27.8634 24.1385 30.7385C22.1778 33.7546 22.2734 36.8719 24.0398 39.9892C27.7669 46.567 32.0426 52.78 36.5959 58.8123C39.8944 63.1832 46.1185 63.1495 49.414 58.7694C53.961 52.731 58.2368 46.5179 61.9701 39.9462C62.7685 38.5393 63.2956 37.0711 63.2956 35.4405L63.2987 35.4374Z" fill="#1A1A32"/>
<path d="M148.271 79.1262C126.159 79.1262 110 62.5422 110 39.7924C110 17.0425 126.159 0.458557 148.271 0.458557C167.512 0.458557 182.502 12.8965 183.777 29.9058L170.17 31.0751C168.894 20.4444 159.646 12.6839 148.271 12.6839C134.238 12.6839 124.033 24.1651 124.033 39.7924C124.033 55.3133 134.238 66.7945 148.271 66.7945C159.752 66.7945 169.107 58.6088 170.383 47.4465L183.99 48.5096C182.608 66.1566 167.512 79.1262 148.271 79.1262Z" fill="#1A1A32"/>
<path d="M219.84 78.5946C203.575 78.5946 191.881 66.7945 191.881 50.2105C191.881 33.7328 203.575 21.9327 219.84 21.9327C235.999 21.9327 247.692 33.7328 247.692 50.2105C247.692 66.7945 235.999 78.5946 219.84 78.5946ZM205.169 50.2105C205.169 60.3097 211.123 67.4323 219.84 67.4323C228.451 67.4323 234.404 60.3097 234.404 50.2105C234.404 40.2176 228.451 33.095 219.84 33.095C211.123 33.095 205.169 40.2176 205.169 50.2105Z" fill="#1A1A32"/>
<path d="M256.704 77V23.5273H269.887L269.568 38.1977C271.906 25.7598 280.73 21.6138 289.766 23.421V36.4968C279.454 35.0085 269.887 39.6861 269.887 54.2502V77H256.704Z" fill="#1A1A32"/>
<path d="M315.979 77L294.824 23.5273H308.644L322.889 62.6485L337.241 23.5273H350.529L329.374 77H315.979Z" fill="#1A1A32"/>
<path d="M371.577 78.1694C361.903 78.1694 354.568 72.4288 354.568 63.18C354.568 53.3997 362.86 47.1276 380.082 45.4267L388.48 44.6825V43.1942C388.48 35.859 383.271 32.3508 377.849 32.3508C372.747 32.3508 367.538 35.6464 366.9 42.2374L354.036 42.1311C354.993 28.7364 366.581 22.1453 378.062 21.9327C389.862 21.7201 401.556 29.0553 401.556 43.9384V61.1602C401.556 66.9008 402.088 73.0666 402.832 77H389.968C389.437 74.7675 389.012 72.2162 389.012 67.9639C386.354 74.4486 378.806 78.1694 371.577 78.1694ZM367.75 62.3296C367.75 66.9008 371.577 69.1332 375.83 69.1332C381.783 69.1332 388.586 64.8809 388.586 55.6322V52.8682L381.57 53.6123C372.215 54.6754 367.75 57.5457 367.75 62.3296Z" fill="#1A1A32"/>
<path d="M412.117 77V23.5273H425.299L424.98 34.9022C427.319 27.0354 433.272 22.2516 441.883 22.2516C453.471 22.2516 461.231 30.8625 461.231 44.0447V77H448.049V46.0645C448.049 37.7725 444.116 32.8824 437.099 32.8824C429.551 32.8824 425.299 38.5167 425.299 48.4033V77H412.117Z" fill="#1A1A32"/>
<path d="M497.538 78.9135C481.485 78.9135 470.004 66.9008 470.004 50.2105C470.004 33.6265 481.485 21.6138 497.325 21.6138C515.822 21.6138 525.709 37.5599 523.37 54.2502H483.292C483.718 62.5422 489.565 68.6017 497.644 68.6017C504.022 68.6017 509.338 64.9873 511.145 59.5656L522.414 61.2665C520.287 71.1531 510.507 78.9135 497.538 78.9135ZM483.399 44.3636H510.613C510.613 37.241 505.192 31.5004 497.325 31.5004C489.99 31.5004 484.355 36.7094 483.399 44.3636Z" fill="#1A1A32"/>
</svg>
