<svg width="28" height="28" viewBox="0 0 28 28" fill="none" xmlns="http://www.w3.org/2000/svg">
<path d="M22.1667 12.8333H5.83333C4.54467 12.8333 3.5 13.8779 3.5 15.1666V23.3333C3.5 24.6219 4.54467 25.6666 5.83333 25.6666H22.1667C23.4553 25.6666 24.5 24.6219 24.5 23.3333V15.1666C24.5 13.8779 23.4553 12.8333 22.1667 12.8333Z" stroke="#1A1A32" stroke-width="2" stroke-linecap="round" stroke-linejoin="round"/>
<path d="M8.16675 12.8333V8.16659C8.16675 6.61949 8.78133 5.13576 9.87529 4.0418C10.9693 2.94783 12.453 2.33325 14.0001 2.33325C15.5472 2.33325 17.0309 2.94783 18.1249 4.0418C19.2188 5.13576 19.8334 6.61949 19.8334 8.16659V12.8333" stroke="#1A1A32" stroke-width="2" stroke-linecap="round" stroke-linejoin="round"/>
</svg>
